<?xml version="1.0" encoding="UTF-8"?>
<svg version="1.1" xmlns="http://www.w3.org/2000/svg" width="48" height="48">
<path d="M0 0 C0.84755859 0.00966797 1.69511719 0.01933594 2.56835938 0.02929688 C3.44943359 0.05443359 4.33050781 0.07957031 5.23828125 0.10546875 C6.13095703 0.11900391 7.02363281 0.13253906 7.94335938 0.14648438 C10.14644291 0.18182796 12.34830707 0.23116382 14.55078125 0.29296875 C14.55078125 1.28296875 14.55078125 2.27296875 14.55078125 3.29296875 C8.61078125 3.62296875 2.67078125 3.95296875 -3.44921875 4.29296875 C-3.77921875 12.21296875 -4.10921875 20.13296875 -4.44921875 28.29296875 C-1.80921875 28.62296875 0.83078125 28.95296875 3.55078125 29.29296875 C3.55078125 31.93296875 3.55078125 34.57296875 3.55078125 37.29296875 C4.31390625 36.52984375 5.07703125 35.76671875 5.86328125 34.98046875 C6.75015625 34.09359375 7.63703125 33.20671875 8.55078125 32.29296875 C9.0094458 31.75309326 9.46811035 31.21321777 9.94067383 30.65698242 C12.02718851 28.88937704 13.29014986 28.87218457 16 28.78125 C16.84755859 28.74580078 17.69511719 28.71035156 18.56835938 28.67382812 C19.44943359 28.65126953 20.33050781 28.62871094 21.23828125 28.60546875 C22.57729492 28.55422852 22.57729492 28.55422852 23.94335938 28.50195312 C26.14539246 28.41952408 28.34806707 28.35456828 30.55078125 28.29296875 C30.55078125 24.66296875 30.55078125 21.03296875 30.55078125 17.29296875 C31.54078125 17.29296875 32.53078125 17.29296875 33.55078125 17.29296875 C33.65885256 19.22924644 33.73640375 21.16724631 33.80078125 23.10546875 C33.8471875 24.18441406 33.89359375 25.26335938 33.94140625 26.375 C33.55078125 29.29296875 33.55078125 29.29296875 32.0234375 31.1640625 C28.61680109 32.71938307 25.40550849 32.56697058 21.73828125 32.54296875 C16.14880824 32.64351362 16.14880824 32.64351362 11.12109375 34.90625 C9.36100835 36.80957695 9.36100835 36.80957695 7.87890625 38.76953125 C6.55078125 40.29296875 6.55078125 40.29296875 3.61328125 40.73046875 C2.93265625 40.58609375 2.25203125 40.44171875 1.55078125 40.29296875 C0.19638457 37.5841754 0.48576674 35.28363607 0.55078125 32.29296875 C-0.39796875 32.16921875 -1.34671875 32.04546875 -2.32421875 31.91796875 C-5.44921875 31.29296875 -5.44921875 31.29296875 -7.44921875 29.29296875 C-7.90886565 24.99843668 -7.77321654 20.67174057 -7.76171875 16.35546875 C-7.77783203 15.14955078 -7.79394531 13.94363281 -7.81054688 12.70117188 C-7.81119141 11.54681641 -7.81183594 10.39246094 -7.8125 9.203125 C-7.81548096 8.14230713 -7.81846191 7.08148926 -7.8215332 5.98852539 C-7.44921875 3.29296875 -7.44921875 3.29296875 -6.20458984 1.44189453 C-3.97766144 -0.01567502 -2.64942699 -0.05334417 0 0 Z " fill="#000000" transform="translate(8.44921875,6.70703125)"/>
<path d="M0 0 C1.86513897 1.86513897 3.71982023 3.73737683 5.5625 5.625 C7.75959819 8.00641642 7.75959819 8.00641642 10 9 C10 9.99 10 10.98 10 12 C9.236875 12.20625 8.47375 12.4125 7.6875 12.625 C4.17770897 14.42070704 3.47400219 16.43136312 2 20 C1.01 20 0.02 20 -1 20 C-1.20625 19.05125 -1.4125 18.1025 -1.625 17.125 C-2.70833333 13.70833333 -2.70833333 13.70833333 -6.125 12.625 C-7.07375 12.41875 -8.0225 12.2125 -9 12 C-9 11.01 -9 10.02 -9 9 C-7 7.66666667 -5 6.33333333 -3 5 C-1.13689678 2.39975951 -1.13689678 2.39975951 0 0 Z M0 6 C-1.485 8.475 -1.485 8.475 -3 11 C-1.68 11.99 -0.36 12.98 1 14 C1.99 12.68 2.98 11.36 4 10 C2.68 8.68 1.36 7.36 0 6 Z " fill="#000000" transform="translate(37,1)"/>
</svg>
