<?xml version="1.0" encoding="UTF-8"?>
<svg version="1.1" xmlns="http://www.w3.org/2000/svg" width="48" height="48">
<path d="M0 0 C0.93199219 -0.00257812 1.86398437 -0.00515625 2.82421875 -0.0078125 C3.80003906 -0.00007812 4.77585937 0.00765625 5.78125 0.015625 C6.75707031 0.00789062 7.73289062 0.00015625 8.73828125 -0.0078125 C9.67027344 -0.00523438 10.60226563 -0.00265625 11.5625 0 C12.41908203 0.00225586 13.27566406 0.00451172 14.15820312 0.00683594 C16.28125 0.265625 16.28125 0.265625 18.28125 2.265625 C18.52416992 4.22094727 18.52416992 4.22094727 18.51171875 6.58203125 C18.50978516 7.42830078 18.50785156 8.27457031 18.50585938 9.14648438 C18.48749023 10.47389648 18.48749023 10.47389648 18.46875 11.828125 C18.46810547 12.71693359 18.46746094 13.60574219 18.46679688 14.52148438 C18.42146097 21.12541403 18.42146097 21.12541403 17.28125 22.265625 C14.61066149 22.40677661 11.95692762 22.30809607 9.28125 22.265625 C8.29125 24.740625 8.29125 24.740625 7.28125 27.265625 C5.96125 26.935625 4.64125 26.605625 3.28125 26.265625 C2.95125 24.945625 2.62125 23.625625 2.28125 22.265625 C0.981875 22.28625 -0.3175 22.306875 -1.65625 22.328125 C-3.01040633 22.34961954 -4.36631083 22.33710699 -5.71875 22.265625 C-7.9584648 20.0259102 -6.90406833 14.83665012 -6.90625 11.828125 C-6.91849609 10.94318359 -6.93074219 10.05824219 -6.94335938 9.14648438 C-6.94529297 8.30021484 -6.94722656 7.45394531 -6.94921875 6.58203125 C-6.95332764 5.80287354 -6.95743652 5.02371582 -6.96166992 4.22094727 C-6.42615761 -0.08952321 -3.65486374 0.0096253 0 0 Z M-3.71875 3.265625 C-3.739375 5.885 -3.76 8.504375 -3.78125 11.203125 C-3.790354 12.0293335 -3.79945801 12.85554199 -3.80883789 13.70678711 C-3.81598945 15.55996259 -3.7690352 17.41311808 -3.71875 19.265625 C-2.54418499 20.64424774 -2.54418499 20.64424774 0.71875 20.703125 C4.28125 21.265625 4.28125 21.265625 6.28125 23.265625 C6.61125 22.605625 6.94125 21.945625 7.28125 21.265625 C9.60841 20.89161714 11.94242862 20.55797767 14.28125 20.265625 C15.69899838 19.07709645 15.69899838 19.07709645 15.37890625 15.66796875 C15.37316272 14.17965245 15.36014891 12.69136204 15.34375 11.203125 C15.3128125 7.2740625 15.3128125 7.2740625 15.28125 3.265625 C9.01125 3.265625 2.74125 3.265625 -3.71875 3.265625 Z " fill="#000000" transform="translate(6.71875,-0.265625)"/>
<path d="M0 0 C2.95857409 -0.05379226 5.91617721 -0.09357093 8.875 -0.125 C9.71675781 -0.14175781 10.55851562 -0.15851562 11.42578125 -0.17578125 C12.23144531 -0.18222656 13.03710938 -0.18867187 13.8671875 -0.1953125 C14.98262939 -0.21102295 14.98262939 -0.21102295 16.12060547 -0.22705078 C18 -0 18 -0 20 2 C20.24291992 3.95532227 20.24291992 3.95532227 20.23046875 6.31640625 C20.22853516 7.16267578 20.22660156 8.00894531 20.22460938 8.88085938 C20.20624023 10.20827148 20.20624023 10.20827148 20.1875 11.5625 C20.18685547 12.45130859 20.18621094 13.34011719 20.18554688 14.25585938 C20.14021097 20.85978903 20.14021097 20.85978903 19 22 C16.32941149 22.14115161 13.67567762 22.04247107 11 22 C10.01 24.475 10.01 24.475 9 27 C7.68 26.67 6.36 26.34 5 26 C4.67 24.68 4.34 23.36 4 22 C2.68 22 1.36 22 0 22 C0 21.34 0 20.68 0 20 C3 20 6 20 9 20 C12.465 19.505 12.465 19.505 16 19 C16.33 13.72 16.66 8.44 17 3 C11.39 3 5.78 3 0 3 C0 2.01 0 1.02 0 0 Z " fill="#000000" transform="translate(28,0)"/>
<path d="M0 0 C3.4375 0.8125 3.4375 0.8125 5.4375 3.8125 C5.25 6.875 5.25 6.875 4.4375 9.8125 C1.4375 11.8125 1.4375 11.8125 -2.1875 11.5 C-5.5625 10.8125 -5.5625 10.8125 -6.5625 9.8125 C-6.93336093 3.9714404 -6.93336093 3.9714404 -6.5625 1.8125 C-3.5625 -0.1875 -3.5625 -0.1875 0 0 Z M-2.5625 2.8125 C-2.8925 4.4625 -3.2225 6.1125 -3.5625 7.8125 C-2.2425 8.1425 -0.9225 8.4725 0.4375 8.8125 C1.0975 7.4925 1.7575 6.1725 2.4375 4.8125 C1.7775 4.1525 1.1175 3.4925 0.4375 2.8125 C-0.5525 2.8125 -1.5425 2.8125 -2.5625 2.8125 Z " fill="#000000" transform="translate(40.5625,29.1875)"/>
<path d="M0 0 C3.375 0.6875 3.375 0.6875 4.375 1.6875 C4.74586093 7.5285596 4.74586093 7.5285596 4.375 9.6875 C1.375 11.6875 1.375 11.6875 -2.1875 11.5 C-5.625 10.6875 -5.625 10.6875 -7.625 7.6875 C-7.4375 4.625 -7.4375 4.625 -6.625 1.6875 C-3.625 -0.3125 -3.625 -0.3125 0 0 Z M-2.625 2.6875 C-3.285 4.0075 -3.945 5.3275 -4.625 6.6875 C-3.965 7.3475 -3.305 8.0075 -2.625 8.6875 C-0.51679203 8.3689823 -0.51679203 8.3689823 1.375 7.6875 C1.045 6.0375 0.715 4.3875 0.375 2.6875 C-0.615 2.6875 -1.605 2.6875 -2.625 2.6875 Z " fill="#000000" transform="translate(9.625,29.3125)"/>
<path d="M0 0 C0.598125 0.165 1.19625 0.33 1.8125 0.5 C5.15649939 1.26434272 7.75068088 0.8963639 11 0 C10.62875 0.9075 10.2575 1.815 9.875 2.75 C8.69640701 5.88097015 8.69640701 5.88097015 9.875 8.375 C10.24625 8.91125 10.6175 9.4475 11 10 C10.401875 9.835 9.80375 9.67 9.1875 9.5 C5.84350061 8.73565728 3.24931912 9.1036361 0 10 C0.37125 9.0925 0.7425 8.185 1.125 7.25 C2.30359299 4.11902985 2.30359299 4.11902985 1.125 1.625 C0.75375 1.08875 0.3825 0.5525 0 0 Z " fill="#000000" transform="translate(30,6)"/>
<path d="M0 0 C2.5625 1.3125 2.5625 1.3125 4 3 C4 3.99 4 4.98 4 6 C0.125 5.125 0.125 5.125 -1 4 C-4.45821402 3.74996036 -4.45821402 3.74996036 -8 4 C-8.66 4.66 -9.32 5.32 -10 6 C-10.99 6 -11.98 6 -13 6 C-12.6875 4.125 -12.6875 4.125 -12 2 C-7.97239992 -0.68506672 -4.72890707 -0.5633716 0 0 Z " fill="#000000" transform="translate(44,42)"/>
<path d="M0 0 C2.5625 1.3125 2.5625 1.3125 4 3 C4 3.99 4 4.98 4 6 C0.125 5.125 0.125 5.125 -1 4 C-4.45821402 3.74996036 -4.45821402 3.74996036 -8 4 C-8.66 4.66 -9.32 5.32 -10 6 C-10.99 6 -11.98 6 -13 6 C-12.6875 4.125 -12.6875 4.125 -12 2 C-7.97239992 -0.68506672 -4.72890707 -0.5633716 0 0 Z " fill="#000000" transform="translate(13,42)"/>
<path d="M0 0 C0.66 0.33 1.32 0.66 2 1 C0.56036361 4.35915158 -1.12416589 6.71624938 -4 9 C-6.25 8.75 -6.25 8.75 -8 8 C-8 6.68 -8 5.36 -8 4 C-7.4225 3.896875 -6.845 3.79375 -6.25 3.6875 C-3.67950842 2.90207202 -2.06342716 1.69495803 0 0 Z " fill="#000000" transform="translate(16,6)"/>
</svg>
