<?xml version="1.0" encoding="UTF-8"?>
<svg version="1.1" xmlns="http://www.w3.org/2000/svg" width="48" height="48">
<path d="M0 0 C10.56 0 21.12 0 32 0 C32.495 3.465 32.495 3.465 33 7 C33.350625 7.680625 33.70125 8.36125 34.0625 9.0625 C35.42566731 11.87971244 35.38564767 13.91481861 35 17 C33.375 19.375 33.375 19.375 31 21 C27.3282913 21.61195145 25.71186432 21.48706506 22.625 19.375 C20.46096086 16.21217357 20.41723244 14.78798913 21 11 C22.16028359 8.22932281 23.51611697 5.61004425 25 3 C22.36 3 19.72 3 17 3 C17 8.94 17 14.88 17 21 C16.34 21 15.68 21 15 21 C15 15.06 15 9.12 15 3 C12.36 3 9.72 3 7 3 C7.28875 3.50789063 7.5775 4.01578125 7.875 4.5390625 C10.15906315 8.77409626 11.89608862 12.0715126 11 17 C9.375 19.375 9.375 19.375 7 21 C3.3282913 21.61195145 1.71186432 21.48706506 -1.375 19.375 C-3.49923932 16.27034254 -3.51893143 14.70665305 -3 11 C-2.01642648 8.99187074 -1.01691264 6.99145391 0 5 C0 3.35 0 1.7 0 0 Z M3 6 C2.34 7.98 1.68 9.96 1 12 C2.98 12 4.96 12 7 12 C6.34 10.02 5.68 8.04 5 6 C4.34 6 3.68 6 3 6 Z M27 6 C26.34 7.98 25.68 9.96 25 12 C26.98 12 28.96 12 31 12 C30.34 10.02 29.68 8.04 29 6 C28.34 6 27.68 6 27 6 Z M0 15 C0.99 16.485 0.99 16.485 2 18 C4.47266765 17.65555119 4.47266765 17.65555119 7 17 C7.33 16.34 7.66 15.68 8 15 C5.36 15 2.72 15 0 15 Z M24 15 C24.99 16.485 24.99 16.485 26 18 C28.47266765 17.65555119 28.47266765 17.65555119 31 17 C31.33 16.34 31.66 15.68 32 15 C29.36 15 26.72 15 24 15 Z " fill="#000000" transform="translate(8,27)"/>
<path d="M0 0 C2.375 1.5625 2.375 1.5625 4 4 C4.46337203 8.40203429 4.48038907 10.2794164 2 14 C1.34 14 0.68 14 0 14 C0 14.66 0 15.32 0 16 C0.61875 16.0825 1.2375 16.165 1.875 16.25 C4 17 4 17 6 21 C10.95 21 15.9 21 21 21 C21 21.99 21 22.98 21 24 C5.16 24 -10.68 24 -27 24 C-27 23.01 -27 22.02 -27 21 C-22.05 21 -17.1 21 -12 21 C-11.34 19.68 -10.68 18.36 -10 17 C-7.875 16.25 -7.875 16.25 -6 16 C-6 15.34 -6 14.68 -6 14 C-6.99 13.67 -7.98 13.34 -9 13 C-10.54586876 9.90826248 -10.29359521 7.40570448 -10 4 C-7.26646839 -0.10029741 -4.80388991 -0.80064832 0 0 Z M-5 3 C-7.2491908 4.82703227 -7.2491908 4.82703227 -7.25 7.5 C-7.2491908 10.17296773 -7.2491908 10.17296773 -5 12 C-1.69316534 11.71016731 -1.69316534 11.71016731 1 10 C1.2500773 7.54190002 1.2500773 7.54190002 1 5 C0.34 4.34 -0.32 3.68 -1 3 C-2.32 3 -3.64 3 -5 3 Z M-5 18 C-5.99 18.99 -6.98 19.98 -8 21 C-4.7 21 -1.4 21 2 21 C1.01 20.01 0.02 19.02 -1 18 C-2.32 18 -3.64 18 -5 18 Z " fill="#000000" transform="translate(27,0)"/>
</svg>
