<?xml version="1.0" encoding="UTF-8"?>
<svg version="1.1" xmlns="http://www.w3.org/2000/svg" width="48" height="48">
<path d="M0 0 C2.58971247 0.86323749 3.66500737 1.53101032 5.25 3.75 C6.28406244 6.85218731 6.51255626 8.73245385 6 12 C4.28071513 14.62111834 2.36056029 16.93298089 0 19 C-0.66 19 -1.32 19 -2 19 C-1.9175 18.25363281 -1.835 17.50726562 -1.75 16.73828125 C-1.74037879 13.90280499 -1.74037879 13.90280499 -3.75 11.98046875 C-4.4925 11.38878906 -5.235 10.79710937 -6 10.1875 C-6.7425 9.58292969 -7.485 8.97835938 -8.25 8.35546875 C-8.8275 7.90816406 -9.405 7.46085938 -10 7 C-9.36114001 10.80834981 -8.7720237 12.34849907 -6 15 C-6 15.99 -6 16.98 -6 18 C-9.06775511 16.57568513 -11.21040099 15.09219926 -14 13 C-20.27 19.27 -26.54 25.54 -33 32 C-31.02590314 36.04005922 -31.02590314 36.04005922 -28 39 C-25.89667109 39.71447643 -25.89667109 39.71447643 -24 40 C-24.10546875 41.859375 -24.10546875 41.859375 -25 44 C-27.80078125 45.265625 -27.80078125 45.265625 -31.3125 46.25 C-32.46363281 46.58515625 -33.61476563 46.9203125 -34.80078125 47.265625 C-38 48 -38 48 -42 48 C-41.06497982 37.71477802 -38.76690775 30.81453948 -31.21484375 23.59375 C-30.22950401 22.61758728 -30.22950401 22.61758728 -29.22425842 21.6217041 C-27.14240653 19.56658802 -25.04033476 17.53361655 -22.9375 15.5 C-21.52146319 14.10550911 -20.10673587 12.70968717 -18.69335938 11.3125 C-16.11424617 8.77537953 -13.53366141 6.24001494 -10.93334961 3.72460938 C-10.41389267 3.22102905 -9.89443573 2.71744873 -9.35923767 2.1986084 C-6.38550312 -0.42370209 -3.84729218 -0.23083753 0 0 Z M-5 3 C-5.34509128 6.00795167 -5.34509128 6.00795167 -3.46875 7.60546875 C-2.49421875 8.38857422 -2.49421875 8.38857422 -1.5 9.1875 C-0.8503125 9.71730469 -0.200625 10.24710938 0.46875 10.79296875 C0.9740625 11.19128906 1.479375 11.58960938 2 12 C2.85974801 9.70705512 2.85974801 9.70705512 3 7 C1.41666667 4.58333333 1.41666667 4.58333333 -1 3 C-2.32 3 -3.64 3 -5 3 Z M-36 36 C-37.25664978 38.90600261 -38 40.79604584 -38 44 C-34.535 43.505 -34.535 43.505 -31 43 C-31 42.01 -31 41.02 -31 40 C-33.4390706 37.79857668 -33.4390706 37.79857668 -36 36 Z " fill="#000000" transform="translate(42,0)"/>
<path d="M0 0 C3.07469523 1.70251719 5.40613254 3.81226508 7 7 C7.0952699 8.47668337 7.12985959 9.95775457 7.125 11.4375 C7.12886719 12.61119141 7.12886719 12.61119141 7.1328125 13.80859375 C7 16 7 16 6 19 C6.433125 19.39832031 6.86625 19.79664062 7.3125 20.20703125 C7.869375 20.73683594 8.42625 21.26664063 9 21.8125 C9.556875 22.33457031 10.11375 22.85664062 10.6875 23.39453125 C12 25 12 25 12 28 C7.62140745 27.49477778 5.18348776 24.82172778 2 22 C1.34 22.33 0.68 22.66 0 23 C-3.79415519 23.53118173 -7.46331178 23.85089348 -10.890625 21.953125 C-13.70085213 19.63400553 -15.75917792 17.72015775 -16.2734375 14.046875 C-16.46329043 9.75327801 -16.4342668 6.90417036 -13.625 3.5 C-9.39611443 -0.52751007 -5.69165047 -0.87857692 0 0 Z M-13 8 C-13.83333333 11.5 -13.83333333 11.5 -13 15 C-10.40783917 18.69186542 -8.95850936 19.82883761 -4.5 20.625 C-0.04149064 19.82883761 1.40783917 18.69186542 4 15 C4.83333333 11.5 4.83333333 11.5 4 8 C1.40783917 4.30813458 -0.04149064 3.17116239 -4.5 2.375 C-8.95850936 3.17116239 -10.40783917 4.30813458 -13 8 Z " fill="#000000" transform="translate(36,20)"/>
</svg>
